<mxfile host="app.diagrams.net" modified="2024-01-22T07:58:00.540Z" agent="Mozilla/5.0 (Windows NT 10.0; Win64; x64) AppleWebKit/537.36 (KHTML, like Gecko) Chrome/120.0.0.0 Safari/537.36" etag="Nu0bwfl_SnGFR6CeOzqW" version="22.1.21" type="github">
  <diagram name="Page-1" id="ZtHZB85JGUMPfQHmehh-">
    <mxGraphModel dx="1434" dy="780" grid="1" gridSize="10" guides="1" tooltips="1" connect="1" arrows="1" fold="1" page="1" pageScale="1" pageWidth="827" pageHeight="1169" math="0" shadow="0">
      <root>
        <mxCell id="0" />
        <mxCell id="1" parent="0" />
        <mxCell id="82T5lFNZR14rcMArvqhN-4" value="" style="rounded=0;whiteSpace=wrap;html=1;rotation=90;" vertex="1" parent="1">
          <mxGeometry x="176.2" y="334.74" width="471.8" height="288.16" as="geometry" />
        </mxCell>
        <mxCell id="82T5lFNZR14rcMArvqhN-10" value="Catatan Pengunjung Perpustakaan" style="text;html=1;strokeColor=none;fillColor=none;align=center;verticalAlign=middle;whiteSpace=wrap;rounded=0;" vertex="1" parent="1">
          <mxGeometry x="309" y="270" width="210" height="30" as="geometry" />
        </mxCell>
        <mxCell id="82T5lFNZR14rcMArvqhN-11" value="Mengisi Buku Catatan Pengunjung" style="ellipse;whiteSpace=wrap;html=1;" vertex="1" parent="1">
          <mxGeometry x="346.36" y="320" width="126" height="70" as="geometry" />
        </mxCell>
        <mxCell id="82T5lFNZR14rcMArvqhN-12" value="Mencari Buku" style="ellipse;whiteSpace=wrap;html=1;" vertex="1" parent="1">
          <mxGeometry x="346.36" y="410" width="126" height="70" as="geometry" />
        </mxCell>
        <mxCell id="82T5lFNZR14rcMArvqhN-13" value="Membaca Buku Catatan" style="ellipse;whiteSpace=wrap;html=1;" vertex="1" parent="1">
          <mxGeometry x="351" y="500" width="126" height="70" as="geometry" />
        </mxCell>
        <mxCell id="82T5lFNZR14rcMArvqhN-14" value="Rekap Buku Catatan" style="ellipse;whiteSpace=wrap;html=1;" vertex="1" parent="1">
          <mxGeometry x="349.1" y="600" width="126" height="70" as="geometry" />
        </mxCell>
        <mxCell id="82T5lFNZR14rcMArvqhN-17" value="User" style="shape=umlActor;verticalLabelPosition=bottom;verticalAlign=top;html=1;outlineConnect=0;fillColor=#e1d5e7;strokeColor=#9673a6;" vertex="1" parent="1">
          <mxGeometry x="160" y="410" width="43.8" height="80" as="geometry" />
        </mxCell>
        <mxCell id="82T5lFNZR14rcMArvqhN-18" value="Pustakawan" style="shape=umlActor;verticalLabelPosition=bottom;verticalAlign=top;html=1;outlineConnect=0;fillColor=#f8cecc;strokeColor=#b85450;" vertex="1" parent="1">
          <mxGeometry x="630" y="410" width="43.8" height="80" as="geometry" />
        </mxCell>
        <mxCell id="82T5lFNZR14rcMArvqhN-19" value="" style="endArrow=none;html=1;rounded=0;entryX=0.005;entryY=0.629;entryDx=0;entryDy=0;entryPerimeter=0;" edge="1" parent="1" target="82T5lFNZR14rcMArvqhN-11">
          <mxGeometry width="50" height="50" relative="1" as="geometry">
            <mxPoint x="200" y="440" as="sourcePoint" />
            <mxPoint x="440" y="480" as="targetPoint" />
          </mxGeometry>
        </mxCell>
        <mxCell id="82T5lFNZR14rcMArvqhN-20" value="" style="endArrow=none;html=1;rounded=0;entryX=0;entryY=0.5;entryDx=0;entryDy=0;" edge="1" parent="1" target="82T5lFNZR14rcMArvqhN-12">
          <mxGeometry width="50" height="50" relative="1" as="geometry">
            <mxPoint x="200" y="440" as="sourcePoint" />
            <mxPoint x="330" y="450" as="targetPoint" />
          </mxGeometry>
        </mxCell>
        <mxCell id="82T5lFNZR14rcMArvqhN-21" value="" style="endArrow=none;html=1;rounded=0;entryX=0;entryY=0.3333333333333333;entryDx=0;entryDy=0;entryPerimeter=0;exitX=1;exitY=0.5;exitDx=0;exitDy=0;" edge="1" parent="1" source="82T5lFNZR14rcMArvqhN-13" target="82T5lFNZR14rcMArvqhN-18">
          <mxGeometry width="50" height="50" relative="1" as="geometry">
            <mxPoint x="490" y="520" as="sourcePoint" />
            <mxPoint x="440" y="480" as="targetPoint" />
          </mxGeometry>
        </mxCell>
        <mxCell id="82T5lFNZR14rcMArvqhN-22" value="" style="endArrow=none;html=1;rounded=0;exitX=0.926;exitY=0.2;exitDx=0;exitDy=0;exitPerimeter=0;" edge="1" parent="1" source="82T5lFNZR14rcMArvqhN-14">
          <mxGeometry width="50" height="50" relative="1" as="geometry">
            <mxPoint x="472.3640000000001" y="617.99" as="sourcePoint" />
            <mxPoint x="628.32" y="440" as="targetPoint" />
          </mxGeometry>
        </mxCell>
      </root>
    </mxGraphModel>
  </diagram>
</mxfile>
